<svg xmlns="http://www.w3.org/2000/svg" viewBox="0 0 500 500"><defs><style>.cls-1,.cls-28{fill:#f6f8fe;}.cls-2{fill:#d2d9f2;}.cls-3{fill:#b7c5ed;}.cls-4{opacity:0.38;}.cls-5{fill:#cfd7f0;}.cls-6{opacity:0.17;}.cls-7{fill:#93a9d8;opacity:0.27;}.cls-8{fill:#37996f;}.cls-9{fill:none;}.cls-10{fill:#79c5a9;}.cls-11{opacity:0.63;}.cls-12{fill:#51af89;}.cls-13{fill:#febd9f;}.cls-14,.cls-32{fill:#f2a486;}.cls-15{fill:#f3885b;}.cls-16,.cls-18{opacity:0.5;}.cls-17,.cls-18{fill:#e06338;}.cls-19{fill:#6152b6;}.cls-20{fill:#362b9e;}.cls-21{fill:#003236;}.cls-22{fill:#002021;}.cls-23{fill:#e26439;}.cls-24{fill:#e82d1f;}.cls-25{fill:#f44a38;opacity:0.35;}.cls-26{fill:#ff634d;}.cls-27{fill:#ffffe4;}.cls-28,.cls-29{opacity:0.81;}.cls-30{opacity:0.25;}.cls-31{fill:#d37a5f;}.cls-32{opacity:0.47;}</style></defs><g id="BACKGROUND"><rect class="cls-1" width="500" height="500"/></g><g id="OBJECTS"><polygon class="cls-2" points="195.94 366.73 182.63 399.9 227.03 399.9 228.31 366.73 195.94 366.73"/><polygon class="cls-3" points="228.31 366.73 227.03 399.9 265.57 399.9 263.99 366.73 228.31 366.73"/><polygon class="cls-2" points="126.39 366.73 62 399.9 128.27 399.9 162.35 366.73 126.39 366.73"/><polygon class="cls-3" points="162.35 366.73 128.27 399.9 182.63 399.9 195.94 366.73 162.35 366.73"/><polygon class="cls-2" points="263.99 366.73 265.57 399.9 310.07 399.9 296.75 366.73 263.99 366.73"/><polygon class="cls-3" points="330.35 366.73 296.75 366.73 310.07 399.9 364.43 399.9 330.35 366.73"/><polygon class="cls-2" points="437.91 399.9 364.82 366.73 330.35 366.73 364.43 399.9 437.91 399.9"/><g class="cls-4"><path class="cls-5" d="M434.62,243.81c-4.47-21.6-13.95-42.84-31-59.08-9.43-9-21-16.28-29.25-26-8.83-10.46-13.27-23.06-19.42-34.89-2.1,38-16.1,75.66-40.8,107.67-36.05,46.73-94.41,80.75-158.36,92.31-18.14,3.27-37.17,4.72-55.35,2.67,1.34,3.23,2.76,6.45,4.26,9.63,5.82,12.34,12.87,24.33,22.2,35l232.62,3.55a104.74,104.74,0,0,0,66.45-52.85C438.4,297.34,440,269.76,434.62,243.81Z"/></g><g class="cls-6"><path class="cls-5" d="M155.76,323.77c64-11.56,122.31-45.58,158.36-92.31,24.7-32,38.7-69.71,40.8-107.67q-1.1-2.08-2.26-4.16C338,94,310.63,73.9,278.59,65.28s-68.34-5.69-98.35,8c-40.62,18.45-67.11,54.28-81.52,91.42a217.34,217.34,0,0,0,1.69,161.79C118.59,328.49,137.62,327,155.76,323.77Z"/></g><path class="cls-7" d="M367.25,377c0,3.44-52.95,6.23-118.26,6.23S130.72,380.4,130.72,377s52.95-6.23,118.27-6.23S367.25,373.52,367.25,377Z"/><path class="cls-8" d="M335.08,340.13a189.47,189.47,0,0,1,23.23-58.67q4.6-7.59,9.89-14.72c.39-.53-.5-1-.89-.52a190.47,190.47,0,0,0-28.66,56.27c-1.8,5.71-3.32,11.51-4.57,17.36-.14.65.86.93,1,.28Z"/><path class="cls-8" d="M341.89,341a285.12,285.12,0,0,0-7.33-36.84c-3.21-12.18-7-24.19-11.08-36.12-2.26-6.69-4.59-13.35-6.92-20-.22-.62-1.22-.35-1,.28,4.15,11.85,8.3,23.72,12.07,35.7s7.08,23.89,9.67,36.08c1.46,6.92,2.68,13.9,3.56,20.92.08.65,1.12.66,1,0Z"/><path class="cls-8" d="M331.45,338.89A209.84,209.84,0,0,1,340,272.14q2.7-9.09,6.22-17.91c.25-.62-.75-.89-1-.28a210,210,0,0,0-9.95,32.33,212.73,212.73,0,0,0-4.66,33.52q-.56,9.54-.23,19.09c0,.66,1.05.66,1,0Z"/><path class="cls-8" d="M345,335.7a127.11,127.11,0,0,0-21.61-31.82q-3.71-4-7.72-7.61c-.5-.44-1.09.4-.61.84a125,125,0,0,1,24,29.56c1.81,3.08,3.47,6.24,5,9.46a.52.52,0,0,0,.94-.43Z"/><path class="cls-9" d="M369.9,283.08a4.68,4.68,0,0,0-2.48.17,7.72,7.72,0,0,0-2.32,1.2c-1.46,1.07-1.79,2.58-1.48,3.11a2.31,2.31,0,0,0,2.13.84,6.3,6.3,0,0,0,2.8-.88,6,6,0,0,0,1.86-1.71,2.51,2.51,0,0,0,.57-1.62A1.31,1.31,0,0,0,369.9,283.08Z"/><path class="cls-9" d="M376.93,275.41a2.66,2.66,0,0,0-1.26.55,3.92,3.92,0,0,0-1,1.05,1.65,1.65,0,0,0-.21,1.9,1.28,1.28,0,0,0,1.27,0,3.55,3.55,0,0,0,1.3-1,3.38,3.38,0,0,0,.66-1.23,1.4,1.4,0,0,0,0-.95A.74.74,0,0,0,376.93,275.41Z"/><path class="cls-10" d="M378.06,223.45l1.33-.34c7.7-25.33-20.68-6.44-28,2,.59,1.78,1.88,3.55,1.57,5.46-1.42-.72-2.82-1.5-4.17-2.35a50.79,50.79,0,0,1-14.57,15.55c3.72,7.52,4,8-3.71,3.67C310.66,267.48,350.9,297,363.78,273L360,269.72c1.41-.74,3.36.06,4.94,0,1.89-15.15,7-29.21,13.27-43.17-.93-.5-1.84-1-2.73-1.58A3.73,3.73,0,0,1,378.06,223.45ZM356,272.33c-1.1,1.86-5.08,3.88-6.75,1.9C347.48,270.9,358.67,266.62,356,272.33Zm7.09-9.22c-.23,1.18-1.95,3-3.18,2.23C358.36,263.91,363.42,259.63,363.05,263.11Z"/><g class="cls-11"><path class="cls-12" d="M378.06,223.45l1.33-.34a29.94,29.94,0,0,0,1-4.47,5.69,5.69,0,0,1-1.28.27c-5.19.44-11.42,6.21-14.51,10.11-4.29,5.39-8,11.49-11.81,17.21a118.68,118.68,0,0,0-10.44,18.08c-2.08,4.75-2.89,9.6-3.74,14.72,9.55,5,21.44,3.62,25.2-6.07L360,269.72c1.41-.74,3.36.06,4.94,0,1.89-15.15,7-29.21,13.27-43.17-.93-.5-1.84-1-2.73-1.58A3.73,3.73,0,0,1,378.06,223.45ZM356,272.33c-1.1,1.86-5.08,3.88-6.75,1.9C347.48,270.9,358.67,266.62,356,272.33Zm7.09-9.22c-.23,1.18-1.95,3-3.18,2.23C358.36,263.91,363.42,259.63,363.05,263.11Z"/></g><path class="cls-8" d="M374.09,213.85a.39.39,0,0,0-.56-.53A152.49,152.49,0,0,0,347,251.92a35.34,35.34,0,0,1,1.09-10.14.39.39,0,0,0-.75-.19,35.58,35.58,0,0,0-1.09,11.35.35.35,0,0,0,.13.27c-1.46,3.11-2.83,6.26-4.08,9.46a151.11,151.11,0,0,0-5.21,15.79.39.39,0,0,0,.75.19c1.21-4.49,2.64-8.92,4.26-13.27a108.4,108.4,0,0,0,13.32-5.77c.44-.24,0-.9-.41-.66a99.93,99.93,0,0,1-12.56,5.46q2.55-6.69,5.7-13.13a152.76,152.76,0,0,1,9.45-16.54,41.33,41.33,0,0,1,7.16-1.11c.5,0,.48-.81,0-.77a42.3,42.3,0,0,0-6.53.95q2.54-3.8,5.27-7.43A151,151,0,0,1,374.09,213.85Z"/><path class="cls-10" d="M266,266.86c-.6.86-1.25,1.69-1.92,2.49,11.05,10.56,21.17,21.6,28.68,34.89,1.5-.5,3-2,4.58-1.84l-2.23,4.43c21,17.3,47.05-25.26,21.05-36.26-5.46,6.91-5.41,6.38-4.83-2A51,51,0,0,1,292,259.74q-1.39,2-3,3.76c-1-1.65-.5-3.78-.62-5.65-9.94-5-43.37-11.71-26.63,8.8l1.36-.19A3.73,3.73,0,0,1,266,266.86Zm43.08,35.6c-.79,2.47-5.25,2.12-7,.81C297.47,299,309.44,298.72,309.12,302.46Zm-13.24-4.17c-.87,1.14-3.13.15-3.79-.85C290.42,294.36,296.73,296.4,295.88,298.29Z"/><g class="cls-11"><path class="cls-12" d="M266,266.86c-.6.86-1.25,1.69-1.92,2.49,11.05,10.56,21.17,21.6,28.68,34.89,1.5-.5,3-2,4.58-1.84l-2.23,4.43c7.17,7.53,20,3.87,26.17-4.6a58.78,58.78,0,0,0-9.61-11.56,118.86,118.86,0,0,0-16.52-12.76c-5.71-3.84-11.45-8.07-17.46-11.43-4.34-2.43-12.3-5.4-17.27-3.84a5.53,5.53,0,0,1-1.28.24,30,30,0,0,0,2.59,3.77l1.36-.19A3.73,3.73,0,0,1,266,266.86Zm43.08,35.6c-.79,2.47-5.25,2.12-7,.81C297.47,299,309.44,298.72,309.12,302.46Zm-13.24-4.17c-.87,1.14-3.13.15-3.79-.85C290.42,294.36,296.73,296.4,295.88,298.29Z"/></g><path class="cls-8" d="M263.15,256.07a.39.39,0,0,1,.32-.71A152.62,152.62,0,0,1,302.69,281a35,35,0,0,0-4.86-9,.39.39,0,0,1,.62-.46,35.69,35.69,0,0,1,5.32,10.08.34.34,0,0,1,0,.3c2.54,2.32,5,4.71,7.37,7.2a149.5,149.5,0,0,1,10.82,12.63c.3.39-.32.85-.62.46q-4.24-5.53-9-10.66a106.6,106.6,0,0,1-14.52-.28c-.49-.05-.37-.82.13-.76a100.84,100.84,0,0,0,13.69.28q-4.89-5.22-10.26-10a154.35,154.35,0,0,0-15-11.71,41.37,41.37,0,0,0-7.05,1.69c-.47.16-.75-.56-.28-.72a41.57,41.57,0,0,1,6.4-1.59q-3.78-2.55-7.7-4.87A151.27,151.27,0,0,0,263.15,256.07Z"/><path class="cls-10" d="M310.31,221a1.36,1.36,0,0,1,.36-1.14l1.11-1.56-1.5-2.13c-1.22-1.74-3.07-3.7-5.08-3a4.11,4.11,0,0,0-1.86,1.55c-3.88,5.14-3.31,12.32-1.62,18.57l5.28-.84a1.35,1.35,0,0,1-.53,1.08l-3.57,3.72c1.63,5.22,3.39,10.47,3,15.88-.26,3.2-1.27,6.43-.85,9.58l5.54-.88a1.33,1.33,0,0,1-.52,1.08l-3.62,3.76a18.1,18.1,0,0,0,2.23,3c2.38,2.64,7.62,5.35,14.23,3.21l.62-.22a3.4,3.4,0,0,0,.34-.12h-.05a14.66,14.66,0,0,0,8.82-9.72c.91-3.82.08-7.84-1.13-11.58-.44-1.38-.94-2.73-1.49-4.07l-4.24,1.34a1.36,1.36,0,0,1,.36-1.14l2.46-3.46c-.36-.76-.74-1.51-1.13-2.25a118.11,118.11,0,0,0-8.05-12.54l-6.31-9Zm3.09,35.63a2.59,2.59,0,0,1,.52,1.27.86.86,0,0,1-.55.9,2.21,2.21,0,0,1-1.63-.2,4,4,0,0,1-1.8-2.05,1.33,1.33,0,0,1,.08-1,1.07,1.07,0,0,1,1-.44,2.69,2.69,0,0,1,1.37.51A3.91,3.91,0,0,1,313.4,256.67Zm-1.28-6a2,2,0,0,1,.31,1.14,1.07,1.07,0,0,1-.55.91,1.55,1.55,0,0,1-1.33,0,2.67,2.67,0,0,1-1.3-1.76,1.48,1.48,0,0,1,.17-1,1.09,1.09,0,0,1,.86-.51,1.71,1.71,0,0,1,1.09.35A2.73,2.73,0,0,1,312.12,250.66Zm15.23,2.1a3.32,3.32,0,0,1,1,1.35,3.54,3.54,0,0,1,.32,1.86,2.23,2.23,0,0,1-1,1.59,2.16,2.16,0,0,1-2,.12,3.47,3.47,0,0,1-1.72-2.74,2.88,2.88,0,0,1,.38-1.65,2.07,2.07,0,0,1,1.37-1A2.15,2.15,0,0,1,327.35,252.76Z"/><g class="cls-11"><path class="cls-12" d="M306.08,213.34c-2.18,6.4.36,12,2.92,17.83a103.16,103.16,0,0,1,5.43,14.49,49.81,49.81,0,0,1,1.62,16.3c-.2,3-.86,6.42.06,9.33a12.39,12.39,0,0,0,1.06,2.36,15.11,15.11,0,0,0,5.7-.74l.62-.22a3.4,3.4,0,0,0,.34-.12h-.05a14.66,14.66,0,0,0,8.82-9.72c.91-3.82.08-7.84-1.13-11.58-.44-1.38-.94-2.73-1.49-4.07l-4.24,1.34a1.36,1.36,0,0,1,.36-1.14l2.46-3.46c-.36-.76-.74-1.51-1.13-2.25a118.11,118.11,0,0,0-8.05-12.54l-6.31-9-2.76.87a1.36,1.36,0,0,1,.36-1.14l1.11-1.56-1.5-2.13c-1-1.46-2.49-3.05-4.12-3.13Zm21.27,39.42a3.32,3.32,0,0,1,1,1.35,3.54,3.54,0,0,1,.32,1.86,2.23,2.23,0,0,1-1,1.59,2.16,2.16,0,0,1-2,.12,3.47,3.47,0,0,1-1.72-2.74,2.88,2.88,0,0,1,.38-1.65,2.07,2.07,0,0,1,1.37-1A2.15,2.15,0,0,1,327.35,252.76Z"/></g><path class="cls-8" d="M304.11,216.57a140.45,140.45,0,0,1,7.24,13.32q1.8,3.81,3.37,7.71a38.75,38.75,0,0,0-5.72-2.09c-.45-.12-.61.57-.17.7a36.66,36.66,0,0,1,6.27,2.35,142.53,142.53,0,0,1,5.43,16.73q1.65,6.41,2.69,12.94a91.15,91.15,0,0,1-10.33-7.3c-.35-.3-.84.22-.49.52a98.27,98.27,0,0,0,11,7.72q.25,1.72.48,3.45a3.92,3.92,0,0,1,.69-.2c-.25-1.92-.52-3.83-.84-5.74-.53-3.12-1.18-6.23-1.91-9.31a.43.43,0,0,0,.17-.22,33.33,33.33,0,0,0,1.14-10.47.36.36,0,0,0-.71,0,32.48,32.48,0,0,1-.92,9.37,140.79,140.79,0,0,0-16.74-39.89A.36.36,0,0,0,304.11,216.57Z"/><path class="cls-10" d="M377.12,261.5a1.39,1.39,0,0,1,1.13-.42l1.91-.1c.24-.83.49-1.66.74-2.5.61-2,1-4.7-.78-5.85a4.19,4.19,0,0,0-2.37-.5c-6.45.14-11.73,5-15.59,10.24l3.93,3.62a1.32,1.32,0,0,1-1.17.26l-5.13-.5c-3.09,4.52-6.12,9.15-10.63,12.16-2.68,1.78-5.83,3-8,5.27l4.12,3.81a1.38,1.38,0,0,1-1.18.26l-5.19-.51a18.59,18.59,0,0,0-1,3.6c-.6,3.52.53,9.3,6.3,13.16l.56.36.3.19,0,0a14.64,14.64,0,0,0,13.09.89c3.56-1.65,6.2-4.8,8.39-8.06.8-1.2,1.55-2.43,2.27-3.69l-3.69-2.5a1.36,1.36,0,0,1,1.13-.42l4.24-.22c.37-.75.72-1.51,1.06-2.27a119.7,119.7,0,0,0,4.86-14.1q1.56-5.26,3.13-10.52Zm-26,24.51a2.64,2.64,0,0,1-.67,1.19.88.88,0,0,1-1.06.13,2.19,2.19,0,0,1-.84-1.41,3.87,3.87,0,0,1,.49-2.68,1.25,1.25,0,0,1,.86-.57,1.07,1.07,0,0,1,.95.49,2.87,2.87,0,0,1,.45,1.4A4.28,4.28,0,0,1,351.08,286Zm3.93-4.73a2.23,2.23,0,0,1-.71,1,1.07,1.07,0,0,1-1.06.13,1.52,1.52,0,0,1-.79-1.06,2.62,2.62,0,0,1,.57-2.11,1.44,1.44,0,0,1,.87-.48,1.13,1.13,0,0,1,.93.36,1.75,1.75,0,0,1,.41,1.08A2.88,2.88,0,0,1,355,281.28Zm7.78,13.25a3.24,3.24,0,0,1-.43,1.64,3.49,3.49,0,0,1-1.26,1.4,2.22,2.22,0,0,1-1.84.24,2.19,2.19,0,0,1-1.34-1.5,3.48,3.48,0,0,1,1.08-3.06,2.93,2.93,0,0,1,1.54-.72,2.06,2.06,0,0,1,1.6.47A2.14,2.14,0,0,1,362.79,294.53Z"/><g class="cls-11"><path class="cls-12" d="M380.55,253.41c-6.37,2.25-9.2,7.72-12.19,13.34a103.57,103.57,0,0,1-8,13.24,49.54,49.54,0,0,1-11.78,11.38c-2.46,1.68-5.57,3.3-7.29,5.82a12.11,12.11,0,0,0-1.19,2.29,15,15,0,0,0,4.11,4l.56.36.3.19,0,0a14.64,14.64,0,0,0,13.09.89c3.56-1.65,6.2-4.8,8.39-8.06.8-1.2,1.55-2.43,2.27-3.69l-3.69-2.5a1.36,1.36,0,0,1,1.13-.42l4.24-.22c.37-.75.72-1.51,1.06-2.27a119.7,119.7,0,0,0,4.86-14.1q1.56-5.26,3.13-10.52l-2.39-1.63a1.39,1.39,0,0,1,1.13-.42l1.91-.1c.24-.83.49-1.66.74-2.5.51-1.7.85-3.84-.1-5.17Zm-17.76,41.12a3.24,3.24,0,0,1-.43,1.64,3.49,3.49,0,0,1-1.26,1.4,2.22,2.22,0,0,1-1.84.24,2.19,2.19,0,0,1-1.34-1.5,3.48,3.48,0,0,1,1.08-3.06,2.93,2.93,0,0,1,1.54-.72,2.06,2.06,0,0,1,1.6.47A2.14,2.14,0,0,1,362.79,294.53Z"/></g><path class="cls-8" d="M376.79,253.86a138.12,138.12,0,0,1-6,13.94c-1.24,2.51-2.57,5-4,7.42a39.12,39.12,0,0,0-1.91-5.78c-.17-.43-.82-.12-.64.3a37.6,37.6,0,0,1,2,6.38,141.57,141.57,0,0,1-9.77,14.63q-4,5.26-8.49,10.13a92,92,0,0,1-.67-12.63c0-.46-.69-.53-.71-.07a98.26,98.26,0,0,0,.73,13.39c-.79.85-1.6,1.68-2.41,2.51a5.06,5.06,0,0,1,.58.42c1.35-1.38,2.69-2.78,4-4.21q3.2-3.54,6.13-7.28a.34.34,0,0,0,.28,0,33.09,33.09,0,0,0,8.92-5.59c.35-.3-.12-.84-.46-.54a32.54,32.54,0,0,1-7.92,5.09,141.65,141.65,0,0,0,20.93-37.86A.36.36,0,0,0,376.79,253.86Z"/><path class="cls-13" d="M363.51,334.84a1.34,1.34,0,0,0-1.31-1.6H311.38a1.34,1.34,0,0,0-1.31,1.61L311.5,342a2.23,2.23,0,0,0,2.18,1.79h46a2.57,2.57,0,0,0,2.52-2.09Z"/><path class="cls-13" d="M314.09,343.33l6.32,31.56a1.22,1.22,0,0,0,1.2,1h30.64a1.24,1.24,0,0,0,1.2-1l6.09-31.55Z"/><path class="cls-14" d="M353.91,372.46l5.63-29.13H314.09l.26,1.27C329.29,350.39,348,356.58,353.91,372.46Z"/><path class="cls-15" d="M240.53,151.56c.7,2.09,1.76,6,.63,7.89s-1.95,3.32-7.89,4.35c1.08,3,5.13,12.07,8.17,13.14s8,.92,10.65-.87c1.6-1.07,4.62-10.53,5.93-11.94-3.1-.47-6.07-1.95-6.94-4.08a8.21,8.21,0,0,1,.22-6.69"/><g class="cls-16"><path class="cls-17" d="M235.62,163.4c5.21-.19,13.8-1.28,14.93-7.72a4.2,4.2,0,0,1,1.12-2.72l-11.14-1.4c.7,2.09,1.76,6,.63,7.89s-1.95,3.32-7.89,4.35l.07.21A5.33,5.33,0,0,1,235.62,163.4Z"/></g><path class="cls-15" d="M260.81,204.35a22.11,22.11,0,0,0,3.17,17.9,44.64,44.64,0,0,1-34.34,0s3.66-6.05.72-21.8"/><path class="cls-18" d="M234.15,223.83a31.47,31.47,0,0,1,11-17.88,25.31,25.31,0,0,1,4.77-3l-19.6-2.51c2.94,15.75-.72,21.8-.72,21.8C231.17,222.87,232.67,223.39,234.15,223.83Z"/><path class="cls-15" d="M256.08,167.23a138.79,138.79,0,0,1,6.52-14.15c3.22-5.71,4.31-21.54,3.26-24.05-1.22-2.92-17.23-31.3-17.23-31.3S244,95.42,244.5,91.9s.63-18.66.63-18.66,1.93-2.9,2.8,3.28,3.61,15.15,8.19,19.62,19,25.66,20.25,28.66-.59,22.69-4.09,35.16c-2.65,9.42-7.92,17.75-8.52,26S253.64,183,256.08,167.23Z"/><path class="cls-18" d="M260.67,112.59c-1.08-1.41-2.19-2.8-3.17-4.29-2.95-3.81-4.93-8.11-7.65-12.07A27.8,27.8,0,0,1,244.9,84.7c-.09,3.08-.23,5.92-.4,7.2-.49,3.52,4.13,5.83,4.13,5.83s16,28.38,17.23,31.3a.43.43,0,0,1,0,.05c.29-5.49-.85-10.85-4.59-15.53A5.52,5.52,0,0,1,260.67,112.59Z"/><path class="cls-18" d="M276.37,124.8a19.06,19.06,0,0,0-1.06-2,48.24,48.24,0,0,1-2,20.84c-2.33,7.64-6.42,14.63-8.82,22.28-2.32,7.39-2.22,14.43-1.23,22a5.13,5.13,0,0,0,.48-2c.6-8.23,5.87-16.56,8.52-26C275.78,147.49,277.59,127.8,276.37,124.8Z"/><path class="cls-15" d="M234.91,167.57a136.45,136.45,0,0,0-6.53-14.15c-3.21-5.71-4.3-21.54-3.25-24,1.22-2.93,17.22-31.3,17.22-31.3s4.62-2.31,4.14-5.83-.64-18.66-.64-18.66-1.93-2.9-2.79,3.28-3.61,15.15-8.2,19.62-19,25.66-20.25,28.66.59,22.69,4.1,35.16c2.65,9.42,7.91,17.75,8.52,26S237.35,183.38,234.91,167.57Z"/><path class="cls-18" d="M230.32,112.93c1.07-1.41,2.18-2.8,3.16-4.29,3-3.81,4.93-8.12,7.66-12.08A27.74,27.74,0,0,0,246.08,85c.1,3.08.23,5.92.41,7.2.48,3.52-4.14,5.83-4.14,5.83s-16,28.37-17.22,31.3c0,0,0,0,0,0-.28-5.49.86-10.85,4.6-15.53A6.19,6.19,0,0,0,230.32,112.93Z"/><path class="cls-18" d="M214.61,125.14a18.67,18.67,0,0,1,1.07-2,48.39,48.39,0,0,0,2,20.84c2.34,7.64,6.43,14.63,8.83,22.28,2.32,7.39,2.22,14.43,1.22,22a5,5,0,0,1-.47-2c-.61-8.22-5.87-16.55-8.52-26C215.2,147.83,213.39,128.14,214.61,125.14Z"/><path class="cls-15" d="M244.23,359.87c-.48,3.51-.25,5.28-2.25,10.11-.33.78-.78,2.47.2,3.61a3.61,3.61,0,0,0,2.43,1.24c5.25.73,10.85.05,16,1.53a15.6,15.6,0,0,0,8.16.24.83.83,0,0,0,.07-1.57c-1.14-.41-2.5-.34-3.79-.74-3.78-1.15-7.62-2.57-10.55-5.4s-4.75-7.38-3.5-11.4"/><path class="cls-15" d="M233,256.57c1.74.26,3.17-1.3,4.5-2.54s3.38-2.26,4.7-1a3.63,3.63,0,0,1,.91,1.86c.5,2.24.11,4.57,0,6.87-.32,6.73,1.85,13.42,1.21,20.12-2.86-3.5-3.22-8.67-5.58-12.6a25.16,25.16,0,0,0-6.11-6.28"/><path class="cls-19" d="M263.69,184.7s-8.27-13.13-6.32-20.68L254,162.87s.6,11.93-7.49,14a5.45,5.45,0,0,1-2.75,0c-8-2.11-6.48-14.09-6.48-14.09l-3.54.91c1.95,7.55-6.32,21-6.32,21C226,190.36,231,204.36,231,204.36l14.49.4h.27l15.07-.41S265.1,190.36,263.69,184.7Z"/><path class="cls-20" d="M241.09,193.61c-5.51-7.05-6.18-15.93-7.31-24.52-1.21,7.24-6.36,15.61-6.36,15.61C226,190.36,231,204.36,231,204.36l14.49.4h.27l15.07-.41s.15-.49.38-1.31C253.44,202.94,246.13,200.05,241.09,193.61Z"/><path class="cls-21" d="M269.64,248c-.49-9.63-.74-9.73-2.94-19.09a28.75,28.75,0,0,0-3.68-9.12c-.65-.92-1.45,0-2.49.32a53.25,53.25,0,0,1-27.93.05c-1.08-.29-2-1.23-2.45-.11-1.57,4.25-3.1,4.94-4.53,5.86-.27.18-1,.51-1.4.82L219,229.93a31.78,31.78,0,0,1-4.61,2.36A126.55,126.55,0,0,0,200,239.13c-7.12,4-13.78,9.3-18.58,16.27a11.07,11.07,0,0,0-1.45,2.66c-1.15,3.35.67,7.24,3.44,9.2,3.19,2.26,7.3,2.46,11,2.35a75.32,75.32,0,0,0,8.22-.71L223.5,266a41.28,41.28,0,0,1,8.36-.75,8.94,8.94,0,0,0,2.66-.28c.6-.37.51-.69.51-1.44,0-2.37.37-4.29.36-6.65a6,6,0,0,0,0-1.7c-.16-.24-.86-.31-1.13-.34-1.91-.27-7.46-.27-9-.55,1.43-.14,2.83.65,9.56-2a33.9,33.9,0,0,0,6.08-3.18,7,7,0,0,1,.41.82,12.68,12.68,0,0,1,.74,3.58c1.85,17.73,1.72,35.61,1.58,53.45l-.42,54.93a.8.8,0,0,0,.78.82,59.31,59.31,0,0,0,7-.55c1.29-.12,1.18-4.27,1.41-5.59,1.2-6.74,3.47-14,4.67-20.75.9-5.08,2.1-8.5,2.41-13.66.25-4.24.1-8.5.49-12.73a101.15,101.15,0,0,1,2.63-14.12c1.2-5.07,2.73-10.06,3.61-15.21C268.78,264.91,270.1,257,269.64,248Z"/><path class="cls-22" d="M195.58,242.81c5-2,10.35-2.91,15.37-4.87s10.28-3.9,15.13-6.24c3-1.46,8.42-5.56,8.75-9.37a5.4,5.4,0,0,1,.36-1.56c-.87-.18-1.73-.39-2.59-.62-1.08-.29-2-1.23-2.45-.11-1.57,4.25-3.1,4.94-4.53,5.86-.27.18-1,.51-1.4.82L219,229.93a31.78,31.78,0,0,1-4.61,2.36A126.55,126.55,0,0,0,200,239.13,65.83,65.83,0,0,0,192,244.4C193.19,243.84,194.36,243.3,195.58,242.81Z"/><path class="cls-22" d="M247.43,270.73c-.63-5.91-1.21-17.28-6.24-21.4a5.66,5.66,0,0,1-.44-.4,3.55,3.55,0,0,1-.21.44l.36-.22a7,7,0,0,1,.41.82,12.68,12.68,0,0,1,.74,3.58c1.85,17.73,1.72,35.61,1.58,53.45q-.18,24.33-.37,48.67c5.47-17.72,5.69-36.24,5.32-54.76C248.37,290.88,248.5,280.72,247.43,270.73Z"/><path class="cls-22" d="M234.22,254.85c-1.91-.27-7.46-.27-9-.55,1.43-.14,2.83.65,9.56-2a32.38,32.38,0,0,0,5.12-2.59,4.3,4.3,0,0,1,0-.62c-3.7.44-7.44.33-11.17.89s-7.74,1.19-11.62,1.64c-7,.81-17.79.68-23.4,5.7l-.08.1c2.76,3.59,18.35,2.8,21.09,2.86,6.81.16,13.62.19,20.44.3.09-1.2.21-2.4.2-3.72a6,6,0,0,0,0-1.7C235.19,255,234.49,254.88,234.22,254.85Z"/><path class="cls-15" d="M260.34,141.51a2.32,2.32,0,0,0-1-1.64,2.13,2.13,0,0,0-2.13.29,32.11,32.11,0,0,0-1.86-10.35l-20.48,3.61a39.73,39.73,0,0,0-.25,6.45,1.79,1.79,0,0,0-1.55,0,2.32,2.32,0,0,0-1,1.64,5.29,5.29,0,0,0,1.09,4.38,5.53,5.53,0,0,0,2.94,1.85,15.66,15.66,0,0,0,4.7,6.8A9.92,9.92,0,0,0,243.2,156a7.27,7.27,0,0,0,3.69.92,6.2,6.2,0,0,0,2.52-1,16,16,0,0,0,6.42-8.11,5.59,5.59,0,0,0,3.42-2A5.29,5.29,0,0,0,260.34,141.51Z"/><path class="cls-21" d="M258.42,144.42a45.42,45.42,0,0,1,1.89-7.38,13.65,13.65,0,0,0,.37-7.51,12.3,12.3,0,0,0-2.41-4.17,18.58,18.58,0,0,0-3.1-3c.13-.26.26-.53.37-.8a12.13,12.13,0,0,0,.21-9.33,9.7,9.7,0,0,0-12-5.33,11.29,11.29,0,0,0-6.92,7.45,15.39,15.39,0,0,0,.24,9.18,9.86,9.86,0,0,0-3.78,4.75,12.49,12.49,0,0,0-.83,5.8c.11,1.21.39,2.39.56,3.58.05.35.13.7.21,1.06-.12,2.27.2,4.57.28,6.85a32.12,32.12,0,0,1-1.34,10.36c.79.1,1.33-.76,1.62-1.5a34.36,34.36,0,0,0,1.95-13.11,14,14,0,0,0,3.06-2.92,26.49,26.49,0,0,0,3.56-5.89c1.42,3.08,4.6,4.91,7.66,6.37a35.54,35.54,0,0,1,6.06,3.33,34.08,34.08,0,0,0,2,12.65c.28.74.83,1.6,1.61,1.49A32.08,32.08,0,0,1,258.33,146c0-.51.05-1,.08-1.54Z"/><path class="cls-21" d="M243.06,137.51c-2.24-1-4.56-1-6.13.15a8.84,8.84,0,0,1,3.87.35,9.58,9.58,0,0,0,.93.39,2.05,2.05,0,0,0,1.22.07.57.57,0,0,0,.11-1"/><path class="cls-23" d="M246.59,140.09a6.52,6.52,0,0,0,1.18,4.69,5.32,5.32,0,0,0,.38.45c.11.11.06,0,0,.05a1,1,0,0,1-.22.14,3,3,0,0,1-.88.24,5.08,5.08,0,0,1-.78,0,2.26,2.26,0,0,0-.45,0c-.49.1-.28.84.2.75-.18,0,0,0,.08,0h.35a5.17,5.17,0,0,0,1-.07c.6-.1,1.84-.51,1.51-1.34a9,9,0,0,0-.79-1.08,5.68,5.68,0,0,1-.55-1.17,6.33,6.33,0,0,1-.23-2.7c.06-.49-.72-.49-.77,0Z"/><g class="cls-16"><path class="cls-24" d="M243.78,149.51a3.32,3.32,0,0,0,5.29-.3"/></g><path class="cls-23" d="M242.28,141a2,2,0,0,1-1.9.46,4.12,4.12,0,0,1-2-.89.39.39,0,1,0-.55.55,4.93,4.93,0,0,0,2.6,1.11,2.68,2.68,0,0,0,2.45-.69.39.39,0,0,0,0-.54.38.38,0,0,0-.55,0Z"/><path class="cls-21" d="M252.38,136.81a7.32,7.32,0,0,0-3.82.7.57.57,0,0,0,.11,1,2.05,2.05,0,0,0,1.22-.07c.32-.1.62-.26.93-.39a5.45,5.45,0,0,1,1.61-.35A6.06,6.06,0,0,1,252.38,136.81Z"/><path class="cls-23" d="M254,140.77a4.5,4.5,0,0,1-1.72.75,2.24,2.24,0,0,1-2.1-.35c-.33-.37-.88.18-.54.55a2.91,2.91,0,0,0,2.69.58,5.29,5.29,0,0,0,2.31-1.05A4.28,4.28,0,0,1,254,140.77Z"/><path class="cls-25" d="M242.45,145.88c0,1-1.2,1.83-2.69,1.83s-2.68-.82-2.68-1.83,1.2-1.83,2.68-1.83S242.45,144.87,242.45,145.88Z"/><path class="cls-25" d="M255.8,145.88c0,1-1.2,1.83-2.68,1.83s-2.69-.82-2.69-1.83,1.2-1.83,2.69-1.83S255.8,144.87,255.8,145.88Z"/><path class="cls-26" d="M235.94,124.34c-.95-1.74,2.92-4.49,5.27-5.54a14.87,14.87,0,0,1,7.55-1c4.09.43,8.34,2.59,9.78,6.44.23.62.3,1.71,0,1.46a4.66,4.66,0,0,0-1.11-.57,39.8,39.8,0,0,0-8.76-2c-6-.69-8.19.23-12.7,1.28"/><path class="cls-27" d="M240.71,121.29a.52.52,0,0,0,0-1,.52.52,0,0,0,0,1Z"/><path class="cls-27" d="M245.43,119.33a.52.52,0,0,0,0-1,.52.52,0,0,0,0,1Z"/><path class="cls-27" d="M245.33,122.63a.52.52,0,0,0,0-1,.52.52,0,0,0,0,1Z"/><path class="cls-27" d="M249.38,121.22a.52.52,0,0,0,0-1,.52.52,0,0,0,0,1Z"/><path class="cls-27" d="M251.57,119.4a.52.52,0,0,0,0-1,.52.52,0,0,0,0,1Z"/><path class="cls-27" d="M251.84,123.75a.52.52,0,0,0,0-1,.52.52,0,0,0,0,1Z"/><path class="cls-27" d="M253.93,122a.52.52,0,0,0,0-1,.52.52,0,0,0,0,1Z"/><path class="cls-27" d="M256.76,124.32a.52.52,0,0,0,0-1,.52.52,0,0,0,0,1Z"/><path class="cls-27" d="M238.05,123.14a.52.52,0,0,0,0-1,.52.52,0,0,0,0,1Z"/><path class="cls-13" d="M185.53,363.15c-1-.59-2.24-.66-3.16-1.36a2.89,2.89,0,0,1-.67-.73c0-.09,0-.18,0-.27.61-11.15,2.07-22.5.66-33.58-1.53-12.1-6.69-22.47-14.39-31.93a9.43,9.43,0,0,0-2.41-2.31.58.58,0,0,0-.84.42,64.45,64.45,0,0,0-.6,7.35.89.89,0,0,1-1,.88c-4.53-.5-7.94.7-11.2,4.81a8.47,8.47,0,0,0-1.51,2.91,1,1,0,0,1-1.31.62c-2.71-1.11-5.58-1-8.58-.48a.47.47,0,0,0-.38.58c.33,1.25,1.69,2.09,2.69,3,1.89,1.77,2.67,4.4,4,6.61a14.41,14.41,0,0,0,8.28,6.34c-6.19,2.52-12.82,5.41-16.18,11.2a22,22,0,0,0-2.39,6.92,34.1,34.1,0,0,0,1,16.57,17.75,17.75,0,0,0,1.95,4.3,15.4,15.4,0,0,0,8.28,5.91,25.81,25.81,0,0,0,8,1.06c.94,0,1.89,0,2.83,0l9.3-.2a2.42,2.42,0,0,0,1.25-.24,2,2,0,0,0,.76-1.06l.06-.22a5.5,5.5,0,0,0,3.87,1.6,7.31,7.31,0,0,0,4-.57,3.82,3.82,0,0,0,1.83-2,2.83,2.83,0,0,0,.62.33,5.17,5.17,0,0,0,1.67.2,6.19,6.19,0,0,0,4.09-1.13,3.42,3.42,0,0,0-.5-5.49Z"/><path class="cls-14" d="M150.89,368.32c-4.22-6.4-4-14.54-1.86-21.64,2.17-7.28,9.95-16,7.29-23.9-2.07-6.16-9.33-9.82-14.91-12.12a5.63,5.63,0,0,1-1.23-.7v.1c.33,1.25,1.69,2.09,2.69,3,1.89,1.77,2.67,4.4,4,6.61a14.41,14.41,0,0,0,8.28,6.34c-6.19,2.52-12.82,5.41-16.18,11.2a22,22,0,0,0-2.39,6.92,34.1,34.1,0,0,0,1,16.57,17.75,17.75,0,0,0,1.95,4.3,15.4,15.4,0,0,0,8.28,5.91,24.11,24.11,0,0,0,6.08,1A23,23,0,0,1,150.89,368.32Z"/><path class="cls-14" d="M175.65,360.08q-.18-8-.35-16c0-.64.27-1.55.9-1.39.28.07.44.35.57.61a18.08,18.08,0,0,1,1.37,6.23q.42,4.67.57,9.33a10.26,10.26,0,0,1-.72,5,.82.82,0,0,1-.38.42.78.78,0,0,1-.7-.19c-.95-.71-1.24-1.42-1.26-4"/><path class="cls-14" d="M158.71,344.18c3.62,5.85,1.85,13.48,3.61,20.12a5.42,5.42,0,0,0,2.34,3.63,6.31,6.31,0,0,0,2.11.54,8.56,8.56,0,0,0,2.9,0,2.82,2.82,0,0,0,2.14-1.77,3.77,3.77,0,0,0-.48-2.68c-1.78-3.68-4.72-6.77-6.14-10.61a49.39,49.39,0,0,0-1.79-5.22,9.15,9.15,0,0,0-4.69-4.05"/><path class="cls-14" d="M166.47,293.63a24.85,24.85,0,0,1,1.09,6.9c0,3.64,10.5,6.47,14.22,23C181.78,323.49,180,308.26,166.47,293.63Z"/><path class="cls-1" d="M166.28,317.43c-4.06,2-6,6.28-7.11,10.43a.13.13,0,0,0,.25.07c1.08-4.09,3-8.32,7-10.28.15-.07,0-.29-.13-.22Z"/><path class="cls-1" d="M166.31,317.29c-.76.17-1,1.18-1.31,1.81a19.27,19.27,0,0,0-1,3.16,32.4,32.4,0,0,0-.67,6.51.13.13,0,0,0,.26,0,33.56,33.56,0,0,1,.53-5.84,19.58,19.58,0,0,1,.72-2.73,15.29,15.29,0,0,1,.58-1.46c.2-.43.41-1.09.94-1.2.16,0,.09-.29-.07-.25Z"/><path class="cls-1" d="M166.18,317.42a19.94,19.94,0,0,0-11,6.54c-.1.12.08.31.18.18a19.78,19.78,0,0,1,10.89-6.48c.17,0,.1-.28-.06-.24Z"/><path class="cls-1" d="M171,314.82c3.24-3.15,7.95-3.53,12.22-3.16a.13.13,0,0,1,0,.26c-4.21-.37-8.84,0-12,3.09-.12.12-.28-.08-.16-.19Z"/><path class="cls-1" d="M170.82,314.8c.42-.66,1.47-.58,2.15-.61a18.31,18.31,0,0,1,3.31.14,32.39,32.39,0,0,1,6.35,1.57.13.13,0,0,1-.09.24,33.61,33.61,0,0,0-5.68-1.47,20.37,20.37,0,0,0-2.81-.25c-.52,0-1,0-1.57.05s-1.16,0-1.45.48c-.08.14-.29,0-.21-.15Z"/><path class="cls-1" d="M171,314.72a19.85,19.85,0,0,1,9.88-8.14c.15-.06.27.17.11.23a19.65,19.65,0,0,0-9.78,8.06c-.09.14-.3,0-.21-.15Z"/><circle class="cls-28" cx="168.21" cy="316.88" r="3.92"/><path class="cls-21" d="M160.93,314.3a4.16,4.16,0,0,0-2.48,1,2.62,2.62,0,0,0-.78,2.38.39.39,0,0,0,.75-.2,1.43,1.43,0,0,1,0-.47,2.09,2.09,0,0,1,.1-.42,2.12,2.12,0,0,1,.53-.78,3.41,3.41,0,0,1,1.9-.78.39.39,0,1,0,0-.77Z"/><path class="cls-21" d="M167.45,310.53a3.47,3.47,0,0,1,1-1.79,1.84,1.84,0,0,1,1.82-.35.39.39,0,0,0,.21-.75,2.59,2.59,0,0,0-2.49.49,4.05,4.05,0,0,0-1.32,2.19.38.38,0,0,0,.74.21Z"/><path class="cls-21" d="M167.7,316.21a5.11,5.11,0,0,0-.76-.23.78.78,0,0,1-.55-.52.85.85,0,0,1,.19-.6,2.35,2.35,0,0,1,1.21-.84.8.8,0,0,1,.61,0,.78.78,0,0,1,.34.64,1.75,1.75,0,0,1-1,1.69"/><path class="cls-21" d="M171.24,315.88a3.4,3.4,0,0,1-2.79-.13.26.26,0,0,0-.36.13.26.26,0,0,0-.35.29,3.53,3.53,0,0,1-.56,3,.26.26,0,0,0,.44.26,4,4,0,0,0,.65-3.17,3.91,3.91,0,0,0,3.11.15.27.27,0,0,0,.18-.32A.26.26,0,0,0,171.24,315.88Z"/><path class="cls-14" d="M137,357.22c-4.2,2.52-4.56,8.74-1.86,12.75s7.5,6.18,12.22,7.56a61.07,61.07,0,0,0,36.8-.88c3.24-1.12,6.5-2.59,8.7-5.16,1.38-1.6,2.3-3.8,1.61-5.77a6.26,6.26,0,0,0-3.52-3.38c-5.57-2.52-12-.38-18,.9a61,61,0,0,1-22.49.51A26.44,26.44,0,0,1,137,357.22"/><g class="cls-29"><path class="cls-1" d="M176.9,370a12.82,12.82,0,0,0,7.75,4.59c1,.22,2.11.38,3.2.51a15.22,15.22,0,0,0,5-3.65c1.38-1.6,2.3-3.8,1.61-5.77a6.26,6.26,0,0,0-3.52-3.38c-4.41-2-9.38-1.07-14.23,0C175.38,364.79,174.94,367.34,176.9,370Z"/></g><g class="cls-30"><path class="cls-31" d="M143.87,361.74a26.89,26.89,0,0,1-6.9-4.52c-4.2,2.52-4.56,8.74-1.86,12.75a17.57,17.57,0,0,0,7.94,6C142.19,371.14,142.13,366.31,143.87,361.74Z"/></g><g class="cls-30"><path class="cls-31" d="M165.05,364.36a61.45,61.45,0,0,1-10.68-.1c-2.53,4.21-1.64,9.64,0,14.85a61.63,61.63,0,0,0,16.94.43A17.52,17.52,0,0,1,165.05,364.36Z"/></g><path class="cls-32" d="M151.61,306.9a13,13,0,0,1,4,3.49s1.86,1.71,1.58-.53-4.08-4.71-4.08-4.71A6.13,6.13,0,0,0,151.61,306.9Z"/><path class="cls-32" d="M155,303.48a13,13,0,0,1,3.41,4s1.58,2,1.63-.3-3-4.86-3-4.86A3.77,3.77,0,0,0,155,303.48Z"/><path class="cls-32" d="M159.17,301.69a17,17,0,0,1,2.88,4.63s1.25,2,1.57-.05-2.11-4.77-2.11-4.77A6.82,6.82,0,0,0,159.17,301.69Z"/></g></svg>